<svg width="14" height="9" viewBox="0 0 14 9" fill="none" xmlns="http://www.w3.org/2000/svg">
<path d="M13.2899 2.08918L7.62478 7.88082C7.42378 8.08926 7.20045 8.18603 6.9399 8.18603C6.67936 8.18603 6.44114 8.08181 6.24759 7.88082L0.589946 2.08918C0.426172 1.91796 0.336841 1.71697 0.336841 1.47131C0.336841 0.972539 0.723943 0.585438 1.21526 0.585438C1.45348 0.585438 1.68425 0.682213 1.85547 0.853431L6.93246 6.07186L12.0243 0.853432C12.1956 0.682214 12.4189 0.585439 12.6645 0.585439C13.1559 0.585439 13.543 0.972541 13.543 1.47131C13.543 1.70952 13.4536 1.91796 13.2899 2.08918Z" fill="#1C1C1E"/>
</svg>
