<svg width="22" height="18" viewBox="0 0 22 18" fill="none" xmlns="http://www.w3.org/2000/svg">
<path d="M20.3244 3.36054H1.67563C0.689964 3.36054 0 2.7012 0 1.68027C0 0.680615 0.689964 0 1.67563 0H20.3244C21.31 0 22 0.680615 22 1.68027C22 2.7012 21.31 3.36054 20.3244 3.36054Z" fill="#1C1C1E"/>
<path d="M20.3244 10.3794H1.67563C0.689964 10.3794 0 9.72005 0 8.69913C0 7.69947 0.689964 7.01886 1.67563 7.01886H20.3244C21.31 7.01886 22 7.69947 22 8.69913C22 9.72005 21.31 10.3794 20.3244 10.3794Z" fill="#1C1C1E"/>
<path d="M20.3244 17.4195H1.67563C0.689964 17.4195 0 16.7389 0 15.7393C0 14.7183 0.689964 14.0377 1.67563 14.0377H20.3244C21.31 14.0377 22 14.7183 22 15.7393C22 16.7389 21.31 17.4195 20.3244 17.4195Z" fill="#1C1C1E"/>
</svg>
