<svg width="128" height="32" viewBox="0 0 128 32" fill="none" xmlns="http://www.w3.org/2000/svg">
<g id="Vector">
<path d="M113.772 13.7825H119.584C121.335 13.7825 122.837 14.0694 124.089 14.6432C125.348 15.2096 126.313 16.0106 126.984 17.0464C127.654 18.0822 127.99 19.3006 127.99 20.7016C127.99 22.11 127.654 23.3507 126.984 24.4237C126.313 25.4894 125.348 26.324 124.089 26.9276C122.837 27.5312 121.335 27.833 119.584 27.833H111.011V4.94092H115.169V24.4349H119.584C120.508 24.4349 121.291 24.2598 121.931 23.9096C122.572 23.5593 123.057 23.0973 123.385 22.5235C123.72 21.9497 123.888 21.3275 123.888 20.6568C123.888 19.6881 123.515 18.8647 122.77 18.1866C122.032 17.501 120.97 17.1582 119.584 17.1582H113.772V13.7825Z" fill="#A5A2A2"/>
<path d="M102.772 31.1541C104.504 31.1541 105.944 30.8097 107.092 30.1209C108.24 29.4321 109.096 28.5137 109.66 27.3657C110.223 26.2177 110.505 24.9549 110.505 23.5773C110.505 23.2851 110.494 22.9929 110.474 22.7007C110.432 22.3876 110.39 22.0745 110.348 21.7614C111.058 21.2187 111.622 20.5508 112.039 19.7576C112.436 18.9645 112.634 18.0461 112.634 17.0024C112.634 15.4996 112.206 14.1325 111.35 12.901C110.494 11.6695 109.378 10.6258 108 9.77006C108.021 9.62395 108.042 9.48828 108.063 9.36304C108.063 9.21693 108.063 9.07082 108.063 8.92472C108.063 8.84123 108.063 8.76817 108.063 8.70555C108.063 8.62206 108.052 8.53857 108.031 8.45508C107.865 7.01487 107.426 5.7312 106.717 4.60407C105.986 3.45608 104.89 2.55855 103.429 1.9115C101.947 1.26444 100.006 0.940918 97.6056 0.940918C97.1881 0.940918 96.7498 0.951355 96.2906 0.972227C95.8314 0.993099 95.3618 1.02441 94.8817 1.06615C93.7963 1.17052 92.5126 1.44186 91.0307 1.88019C89.5279 2.31851 87.9311 2.81946 86.2404 3.38302C84.5288 3.94658 82.8277 4.4684 81.137 4.94847C80.6361 4.30142 80.1247 3.75873 79.6029 3.3204C79.0602 2.88208 78.4966 2.56899 77.9122 2.38113H77.8183C77.6722 2.38113 77.5991 2.45419 77.5991 2.6003C77.5991 2.72553 77.6513 2.79859 77.7557 2.81946C78.2775 2.98644 78.7784 3.26822 79.2585 3.6648C79.7177 4.04051 80.1769 4.51015 80.6361 5.07371C79.4046 5.40767 78.2149 5.67902 77.0669 5.88774C75.9189 6.09647 74.8648 6.20083 73.9047 6.20083C73.1741 6.20083 72.5166 6.13821 71.9322 6.01298C71.3269 5.86687 70.7946 5.63727 70.3354 5.32418C69.2918 4.61451 68.676 3.56044 68.4882 2.16197C68.4882 2.01586 68.4151 1.94281 68.269 1.94281C68.2064 1.94281 68.1438 1.97412 68.0812 2.03673C68.0186 2.07848 67.9977 2.1411 68.0186 2.22459C68.102 2.976 68.3212 3.64393 68.676 4.22836C69.01 4.79193 69.4379 5.26156 69.9597 5.63727C70.6694 6.15909 71.5043 6.5348 72.4644 6.76439C73.4246 6.99399 74.4682 7.10879 75.5953 7.10879C76.4929 7.10879 77.453 7.04618 78.4758 6.92094C79.4777 6.77483 80.5109 6.59741 81.5754 6.38869C81.7423 6.66003 81.9198 6.94181 82.1076 7.23403C82.2955 7.52625 82.4729 7.8289 82.6399 8.14199C83.1617 9.08126 83.6105 10.198 83.9862 11.4921C84.3619 12.7653 84.748 14.1325 85.1446 15.5935C85.5412 17.0338 86.0108 18.4948 86.5535 19.9768C87.0962 21.4379 87.785 22.8364 88.6199 24.1722C89.4339 25.5081 90.4671 26.6978 91.7195 27.7414C92.9718 28.8059 94.506 29.6409 96.3219 30.2462C98.117 30.8515 100.267 31.1541 102.772 31.1541ZM102.772 30.6845C101.081 30.6845 99.5467 30.3714 98.1691 29.7452C96.7707 29.1399 95.5079 28.305 94.3808 27.2405C93.2328 26.176 92.1891 24.9549 91.2499 23.5773C90.2897 22.1997 89.413 20.7387 88.6199 19.1941C87.8059 17.6495 87.044 16.1049 86.3343 14.5603C85.6038 13.0158 84.8941 11.5338 84.2053 10.1145C83.4956 8.69512 82.786 7.42188 82.0763 6.29476C83.8296 5.91905 85.6142 5.48073 87.4302 4.97978C89.2461 4.45796 90.9889 3.97789 92.6588 3.53957C93.4937 3.30997 94.3286 3.15342 95.1635 3.06993C95.9984 2.96557 96.8124 2.91338 97.6056 2.91338C99.3589 2.91338 100.977 3.14298 102.458 3.60218C103.92 4.04051 105.109 4.67713 106.028 5.51203C106.946 6.32607 107.457 7.29665 107.562 8.42377C107.562 8.50726 107.572 8.58032 107.593 8.64294C107.593 8.70555 107.593 8.77861 107.593 8.8621C107.593 8.94559 107.593 9.04995 107.593 9.17519C107.572 9.27955 107.551 9.38392 107.531 9.48828C106.591 8.94559 105.579 8.46552 104.494 8.04807C103.387 7.60974 102.25 7.39057 101.081 7.39057H101.05C100.883 7.39057 100.799 7.47407 100.799 7.64105C100.799 7.76628 100.872 7.83934 101.018 7.86021C102.187 8.00632 103.325 8.25679 104.431 8.61163C105.516 8.96646 106.518 9.41522 107.437 9.95791C107.311 10.5423 107.082 11.1268 106.748 11.7112C106.393 12.2748 105.944 12.7757 105.402 13.2141C104.587 12.5044 103.69 11.8678 102.709 11.3042C101.707 10.7198 100.622 10.2293 99.4528 9.83268C97.8874 9.31086 96.4889 9.04995 95.2574 9.04995C93.4624 9.04995 92.1265 9.51959 91.2499 10.4589C90.3523 11.3773 89.9036 12.4939 89.9036 13.8089C89.9036 14.8734 90.1958 15.9797 90.7802 17.1277C91.3438 18.2757 92.21 19.3402 93.3789 20.3212C94.5269 21.3022 95.9566 22.1058 97.6682 22.732C99.3798 23.3373 101.384 23.64 103.68 23.64C104.702 23.64 105.694 23.546 106.654 23.3582C107.593 23.1494 108.459 22.8468 109.253 22.4502C109.273 22.6381 109.294 22.8259 109.315 23.0138C109.315 23.2016 109.315 23.3895 109.315 23.5773C109.315 24.8714 109.086 26.0612 108.626 27.1466C108.146 28.2111 107.426 29.0669 106.466 29.7139C105.485 30.361 104.254 30.6845 102.772 30.6845ZM103.179 23.2016C101.154 23.2016 99.3798 22.9094 97.8561 22.325C96.3115 21.7405 95.0174 20.9891 93.9737 20.0707C92.9301 19.1315 92.1474 18.1296 91.6256 17.0651C91.1037 15.9797 90.8428 14.936 90.8428 13.9342C90.8428 12.7235 91.229 11.7008 92.0013 10.8659C92.7736 10.031 93.9633 9.61352 95.5705 9.61352C96.6559 9.61352 97.8978 9.84312 99.2963 10.3023C100.382 10.6571 101.394 11.1268 102.333 11.7112C103.252 12.2748 104.087 12.9114 104.838 13.6211C104.358 13.9133 103.815 14.1533 103.21 14.3412C102.605 14.5082 101.937 14.5916 101.206 14.5916C100.789 14.5916 100.35 14.5708 99.8911 14.529C99.4319 14.4664 98.9519 14.3621 98.4509 14.2159H98.357C98.2318 14.2159 98.1691 14.289 98.1691 14.4351C98.1691 14.5603 98.2213 14.6334 98.3257 14.6543C98.8475 14.8004 99.3484 14.9047 99.8285 14.9674C100.309 15.03 100.768 15.0613 101.206 15.0613C102.02 15.0613 102.761 14.9674 103.429 14.7795C104.076 14.5708 104.661 14.2994 105.182 13.9655C106.289 15.1135 107.176 16.3763 107.844 17.7539C108.512 19.1106 108.95 20.4673 109.159 21.824C108.345 22.2832 107.426 22.6276 106.403 22.8572C105.36 23.0868 104.285 23.2016 103.179 23.2016ZM110.192 21.1039C109.9 19.7889 109.388 18.474 108.658 17.159C107.906 15.844 106.946 14.6438 105.777 13.5585C106.32 13.0993 106.769 12.5774 107.124 11.993C107.478 11.4086 107.739 10.8241 107.906 10.2397C109.179 11.0746 110.213 12.0661 111.006 13.2141C111.778 14.3621 112.164 15.6144 112.164 16.9711C112.164 17.8478 111.987 18.6305 111.632 19.3193C111.277 20.0081 110.797 20.603 110.192 21.1039Z" fill="#A5A2A2"/>
<path d="M59.0107 4.94092H63.1436V20.6188H63.357L74.1721 4.94092H77.9118V27.9412H73.7453V12.2745H73.5544L62.7056 27.9412H59.0107V4.94092Z" fill="#A5A2A2"/>
<path d="M56.3391 4.94092V27.9412H52.2062V8.39994H42.1436V27.9412H38.0107V4.94092H56.3391Z" fill="#A5A2A2"/>
<path d="M27.9737 22.7749C27.9737 22.7749 24.6117 20.9709 21.0447 20.9709C17.1497 20.9709 14.1157 22.8159 14.1157 24.7019C14.1157 25.6449 15.8787 28.0229 18.9537 28.0229C24.1197 28.0229 26.9897 24.2919 27.9737 22.7749ZM43.6357 3.42285L29.6957 22.8979C30.9667 23.3899 32.1147 24.0869 33.3447 24.0869C34.2877 24.0869 35.2307 23.6769 36.3377 22.3649C36.4197 22.2829 36.5017 22.2418 36.5837 22.2418C36.6247 22.2418 36.7067 22.2829 36.7067 22.3649C36.7067 22.4469 36.6247 22.5699 36.5017 22.7749C35.5587 24.0869 34.4517 24.5379 33.3037 24.5379C31.9917 24.5379 30.5977 23.9639 29.3267 23.3489C29.3267 23.3489 28.1787 25.1939 27.1127 25.8909C25.8827 26.7109 22.9307 28.5969 19.0767 28.5969C15.8377 28.5969 13.6237 26.6289 13.6237 24.7429C13.6237 22.6109 16.6577 20.4789 20.8397 20.4789C23.9557 20.4789 25.8007 21.5039 28.3837 22.1189C28.3837 22.1189 32.1967 17.1989 32.8527 16.3379C32.8527 16.3379 31.8277 17.2808 31.4177 17.5679C30.4747 18.2239 29.3267 19.0849 27.2357 19.0849C24.6937 19.0849 23.7097 18.1828 23.7097 16.8298C23.7097 15.4768 24.7757 13.6319 26.2927 11.9099C26.6207 11.5409 26.9897 11.1719 27.6047 10.3109C29.0807 8.21985 30.3517 6.00585 30.3517 4.44785C30.3517 3.05385 29.4497 2.15185 26.9897 2.11085C26.9487 2.11085 26.9077 2.11085 26.8257 2.11085C21.9877 2.11085 18.5437 6.00585 18.5437 8.62985C18.5437 9.98285 19.4457 11.0079 21.5367 11.0079C25.5137 11.0079 27.6867 6.78485 27.8507 4.40685C27.8917 3.95585 27.9327 3.75085 28.0147 3.75085C28.0557 3.75085 28.1377 3.99685 28.1377 4.44785C28.1377 6.45685 26.2107 11.4589 21.5367 11.4589C19.0767 11.4589 17.9697 10.1878 17.9697 8.58885C17.9697 5.63685 21.5367 1.49585 27.0717 1.49585C30.4337 1.49585 31.6637 3.25885 31.6637 5.34985C31.6637 6.94885 31.0077 8.71185 30.0647 10.1059C28.9577 11.7869 27.9737 12.7709 27.4407 13.3449C26.4977 14.3698 25.3087 16.0508 25.3087 17.2399C25.3087 18.0189 25.8417 18.5519 27.2357 18.5519C28.9167 18.5519 30.5157 17.6089 31.0077 17.1989C33.0577 15.4769 35.3537 12.4019 35.3537 12.4019L41.8727 3.42285H43.6357Z" fill="#A5A2A2"/>
<path d="M13.7908 27.9415L6.22134 17.8899H4.17734V27.9415H0.0107422V4.94092H4.17734V14.3972H5.2218L13.3978 4.94092H18.5302L9.44455 15.4304L18.9233 27.9415H13.7908Z" fill="#A5A2A2"/>
</g>
</svg>
