<svg width="21" height="21" viewBox="0 0 21 21" fill="none" xmlns="http://www.w3.org/2000/svg">
<path d="M0.418191 18.473C-0.128531 19.0197 -0.154565 19.996 0.431208 20.5688C1.00396 21.1415 1.98025 21.1285 2.52697 20.5818L10.4935 12.6023L18.473 20.5818C19.0328 21.1415 19.996 21.1415 20.5688 20.5688C21.1285 19.983 21.1416 19.0328 20.5688 18.473L12.6023 10.4935L20.5688 2.52697C21.1416 1.96724 21.1416 1.00396 20.5688 0.431208C19.983 -0.128531 19.0328 -0.141548 18.473 0.418191L10.4935 8.39773L2.52697 0.418191C1.98025 -0.128531 0.990947 -0.154565 0.431208 0.431208C-0.141548 1.00396 -0.128531 1.98025 0.418191 2.52697L8.39773 10.4935L0.418191 18.473Z" fill="#1C1C1E"/>
</svg>
