<svg width="30" height="30" viewBox="0 0 30 30" fill="none" xmlns="http://www.w3.org/2000/svg">
<g id="control">
<path id="control_2" d="M22.4321 16.6395L15.5788 23.6459C15.3357 23.8981 15.0655 24.0151 14.7503 24.0151C14.4351 24.0151 14.1469 23.8891 13.9128 23.6459L7.06853 16.6395C6.87041 16.4324 6.76234 16.1893 6.76234 15.8921C6.76234 15.2887 7.23063 14.8204 7.825 14.8204C8.11318 14.8204 8.39235 14.9375 8.59948 15.1446L14.7413 21.4575L20.9011 15.1446C21.1083 14.9375 21.3784 14.8204 21.6756 14.8204C22.27 14.8204 22.7383 15.2887 22.7383 15.8921C22.7383 16.1803 22.6302 16.4324 22.4321 16.6395Z" fill="#1C1C1E"/>
</g>
</svg>
