<svg width="490" height="87" viewBox="0 0 490 87" fill="none" xmlns="http://www.w3.org/2000/svg">
<path d="M487.352 58.8168C486.172 61.3778 484.574 63.5609 482.955 65.4501C475.608 74.0371 467.105 77.5118 458.262 78.8084C446.048 80.5988 434.034 78.1292 422.256 72.864C415.743 69.9523 409.305 66.5936 402.866 63.267C401.791 62.7113 401.134 62.9163 400.254 63.9412C398.696 65.7564 397.076 67.537 395.338 68.8261C389.745 72.9677 383.877 72.6318 378.008 70.8413C371.995 69.0064 366.4 65.2872 361.158 60.2442C360.03 59.16 359.024 58.8686 357.695 59.2217C354.059 60.1923 350.393 60.953 346.721 61.4815C339.128 62.5706 331.598 61.8766 324.233 58.4957C320.718 56.883 317.539 54.1763 314.954 49.931C312.77 46.3451 311.509 42.0776 311.697 36.9531C311.849 32.7671 313.905 29.7294 316.37 29.885C318.19 29.9986 318.944 31.673 318.303 34.4069C317.996 35.7183 317.463 36.8889 317.075 38.1558C315.946 41.8355 315.691 46.0043 318.403 50.0125C321.296 54.2899 324.677 56.6286 328.472 57.7745C336.339 60.1503 344.224 59.8639 352.12 58.2734C353.724 57.9499 355.318 57.5325 356.917 57.1596C355.404 54.3467 353.742 52.5414 352.253 50.4249C346.982 42.9321 341.816 35.2466 336.516 27.8056C334.02 24.3037 331.629 20.5029 328.244 19.0137C318.142 14.5684 308.014 10.4169 297.523 9.06112C291.612 8.298 285.755 8.33751 280.016 11.1084C277.867 12.1457 276.846 14.2547 276.663 17.8505C276.507 20.94 276.855 23.9431 278.139 26.2127C281.092 31.431 284.015 36.7555 287.289 41.4231C291.363 47.2317 295.86 52.2648 300.008 57.9474C301.92 60.5677 303.76 63.6177 305.058 67.0381C307.023 72.2169 305.875 76.9068 302.284 78.7442C299.116 80.3667 295.826 81.7868 292.53 82.2881C283.076 83.7254 273.604 85.0368 264.119 85.6912C249.003 86.7334 233.871 86.7458 218.763 85.0738C211.657 84.2885 204.542 83.5599 197.469 82.2535C194.009 81.6139 190.571 80.0457 187.251 78.275C184.482 76.7981 183.531 73.0097 184.667 68.7076C185.337 66.1713 186.338 63.6448 187.573 61.7605C190.182 57.777 192.96 54.0454 195.818 50.5237C201.479 43.5421 207.063 36.4765 211.518 27.3685C213.025 24.2888 213.768 21.0067 213.464 17.1491C213.234 14.2374 212.294 12.0469 210.499 11.2714C208.556 10.4342 206.57 9.79707 204.581 9.2908C199.401 7.96955 194.232 8.7845 189.063 9.64887C181.512 10.9084 174.217 14.156 166.833 16.7565C161.22 18.7346 156.612 23.0046 152.529 29.3862C148.496 35.6887 144.217 41.5935 139.985 47.5577C137.821 50.6077 135.522 53.4107 132.967 56.7398C133.828 57.1942 134.312 57.5893 134.82 57.6955C142.778 59.3502 150.754 60.4022 158.755 58.5722C163.491 57.4881 168.097 55.8532 171.697 50.094C174.103 46.2438 174.559 42.8481 173.013 37.9162C172.656 36.7802 172.183 35.7257 171.898 34.5477C171.193 31.6459 172.018 29.843 173.976 29.8924C174.323 29.9023 174.677 30.0011 175.015 30.1419C177.23 31.0606 178.508 33.7204 178.495 37.6545C178.472 44.5151 176.19 49.321 172.887 53.1317C168.37 58.3376 163.127 60.0367 157.773 61.1357C149.488 62.8348 141.267 61.6864 133.096 59.3823C131.446 58.918 130.124 59.1748 128.634 60.58C122.201 66.6455 115.329 70.75 107.828 71.8119C101.283 72.738 95.2026 70.9426 89.9811 64.077C89.164 63.0027 88.5083 62.5928 87.3918 63.2028C82.8199 65.702 78.205 68.0062 73.5855 70.2758C64.2297 74.8693 54.7265 78.2354 44.9177 79.0677C35.264 79.8852 25.747 78.8652 16.6017 73.4024C11.5399 70.3795 6.7514 66.4602 3.19615 59.6194C0.12005 53.7021 -0.205544 46.3476 3.05484 39.8697C7.02781 31.9743 16.207 27.6846 23.3666 33.0313C24.0685 33.5549 24.7411 34.3526 25.2694 35.2614C26.0603 36.6246 26.6239 38.1756 26.1448 40.2501C25.681 42.2702 24.7442 43.1988 23.5355 43.2433C22.1426 43.2927 20.7251 43.179 19.3506 42.8135C14.9691 41.6479 10.6261 41.0132 6.32908 43.5816C4.33722 44.772 3.74902 46.0635 3.61387 49.5186C3.5033 52.3413 4.19128 54.5937 5.52892 56.1495C8.29479 59.3724 11.096 62.5434 14.0109 65.3983C15.1581 66.522 16.6262 67.1023 17.9838 67.3098C20.7789 67.737 23.6062 68.0433 26.4059 67.8556C30.6998 67.5666 34.7004 65.3069 38.2987 61.5802C41.4178 58.35 41.9491 52.7834 39.7806 47.943C39.2201 46.6909 38.506 45.6141 37.8471 44.4805C37.5477 43.9669 37.1653 43.5668 36.8996 43.0136C36.0826 41.3046 36.2239 39.7734 37.4033 38.8053C38.1712 38.1756 39.0512 37.8372 39.905 37.5483C47.2244 35.0663 54.5991 33.2215 62.0843 32.6831C71.2051 32.0262 80.1692 33.5549 88.9276 37.7558C94.4824 40.4205 100.019 43.1938 105.544 46.0068C106.453 46.471 107.186 46.3476 108.051 45.7697C111.703 43.3346 115.399 41.0749 119.059 38.667C130.448 31.1717 141.983 24.3407 153.708 18.3197C158.217 16.0032 162.708 13.499 167.063 10.533C171.362 7.60402 175.64 4.68245 180.201 3.00804C187.834 0.205017 195.487 -0.634644 203.178 2.53142C205.047 3.29948 207.009 3.5316 208.845 4.4503C212.186 6.12472 215.713 7.41879 218.718 10.1379C224.987 15.8131 226.778 27.1857 221.175 35.9974C217.597 41.6281 213.888 47.0662 210.069 52.2673C207.056 56.3693 203.748 59.9034 200.641 63.8325C199.288 65.544 198.113 67.6185 196.986 69.3324C197.531 72.2861 198.699 73.3752 199.963 73.9605C202.152 74.9706 204.371 75.9436 206.618 76.4573C215.077 78.391 223.605 78.8504 232.136 79.3146C238.895 79.6826 245.633 81.2434 252.415 79.8901C254.332 79.5073 256.273 79.4505 258.205 79.2702C265.139 78.6256 272.085 78.2305 279.002 77.2624C282.656 76.7512 286.272 75.3805 289.869 74.1334C291.307 73.6345 292.65 72.4244 293.222 69.283C291.899 67.3518 290.672 65.0896 289.179 63.4572C282.244 55.8729 276.216 46.555 269.955 37.6866C269.104 36.4814 268.355 35.0466 267.676 33.5771C264.85 27.4525 265.105 20.3201 268.141 14.4819C270.155 10.612 272.764 8.34245 275.659 7.01131C279.368 5.3048 283.144 3.96873 286.91 2.60302C288.875 1.8893 290.869 1.23978 292.871 0.936012C303.215 -0.624794 312.954 3.02285 322.292 10.0045C324.042 11.3134 325.781 12.7112 327.601 13.7164C337.485 19.1742 347.452 24.2617 357.274 29.9912C365.614 34.8564 373.804 40.3884 382.034 45.7228C383.003 46.3525 383.806 46.4266 384.793 45.9327C389.574 43.5445 394.444 41.5738 399.162 38.8992C406.126 34.9502 413.312 33.2931 420.616 32.6633C428.025 32.0262 435.372 33.2462 442.665 35.2738C445.778 36.1406 448.897 37.0494 451.955 38.3114C454.109 39.2005 454.349 41.3318 452.807 43.8384C452.314 44.6411 451.735 45.3153 451.267 46.15C447.868 52.2154 448.501 58.7155 452.911 62.6397C454.135 63.7288 455.464 64.5265 456.763 65.3859C461.742 68.678 466.934 68.4878 472.1 67.332C477.784 66.0626 481.952 60.3701 485.833 54.0849C485.953 53.8898 486.022 53.6083 486.103 53.3589C487.413 49.2543 486.372 44.7472 483.668 43.5692C481.647 42.69 479.547 41.9171 477.471 41.8405C475.209 41.7565 472.936 42.5913 470.661 42.9049C469.183 43.1074 467.659 43.4556 466.217 43.0975C463.929 42.5295 463.109 39.0103 464.545 36.0616C465.22 34.6736 466.197 33.4067 467.205 32.7374C473.882 28.302 481.671 31.1865 486.163 38.2077C490.281 44.6361 490.456 52.0747 487.352 58.8168ZM42.8675 42.9247C43.2422 44.2805 43.6031 45.666 44.0055 47.0193C45.7701 52.9514 45.1435 58.3204 42.0704 62.6644C38.9498 67.0752 35.2195 69.3966 31.1728 70.5326C30.7428 70.6537 30.3067 70.7129 29.8736 70.8019C32.4552 71.6786 34.8018 70.671 37.0931 69.0805C40.8572 66.4676 44.0593 62.5508 47.0064 58.0462C48.6619 55.5148 50.2959 52.9464 51.9806 50.4669C55.9044 44.688 60.3781 40.3958 65.7701 37.9731C62.2394 36.0369 47.3519 39.3412 42.8675 42.9247ZM104.092 47.4663C101.591 46.2142 99.1065 44.8732 96.5863 43.7298C90.2253 40.8452 83.7782 38.5411 77.1254 39.1239C73.7268 39.4227 70.2959 40.1389 66.9833 41.3762C61.5882 43.3939 57.2636 48.4171 53.7575 55.2629C52.4736 57.7721 51.1759 60.2689 49.9842 62.8891C47.917 67.4333 45.9021 72.0293 42.3469 74.0692C42.416 74.3532 42.4835 74.6396 42.5527 74.9236C44.6889 74.7458 46.8359 74.7409 48.9583 74.3631C61.8754 72.054 74.2028 65.9614 86.3828 59.0069C92.3292 55.6112 98.2203 51.9586 104.136 48.422C104.122 48.1035 104.107 47.7849 104.092 47.4663ZM108.631 50.4645C104.113 53.0847 99.6302 55.863 94.7972 58.797C96.9887 63.6942 99.7254 65.9737 102.866 67.1789C105.988 68.3767 109.112 68.2211 112.266 67.2801C117.565 65.6996 122.487 62.6521 127.659 57.8906C124.747 56.7324 122.381 55.8483 120.033 54.8456C116.898 53.5095 113.784 52.0524 110.649 50.7238C110 50.4472 109.212 50.1261 108.631 50.4645ZM153.63 23.2491C139.443 30.3765 125.667 39.2795 111.389 48.5628C112.552 49.279 113.211 49.8149 113.911 50.094C118.514 51.9413 123.138 53.6503 127.725 55.5914C129.052 56.152 130.121 55.9149 131.167 54.5961C134.344 50.5953 137.601 46.7501 140.694 42.5888C144.537 37.4174 148.241 31.9793 152.016 26.6795C152.663 25.7706 153.37 24.9729 154.051 24.1258C153.91 23.8344 153.77 23.5405 153.63 23.2491ZM175.736 8.09797C182.232 6.58408 188.728 5.0702 195.224 3.55879C188.461 2.27952 182.041 4.84793 175.736 8.09797ZM294.762 3.55382C300.886 4.93187 306.839 6.26796 312.79 7.6065C307.182 3.85266 298.348 2.03252 294.762 3.55382ZM336.625 23.2442C336.533 23.4912 336.442 23.7381 336.35 23.9826C337.921 26.2028 339.48 28.4452 341.063 30.6407C346.054 37.5582 350.949 44.6707 356.083 51.3016C360.165 56.5743 360.304 56.357 365.38 54.4504C368.972 53.102 372.544 51.6128 376.12 50.1434C376.857 49.8396 377.565 49.3506 378.83 48.6419C364.601 39.2548 350.789 30.5 336.625 23.2442ZM382.782 51.1337C381.839 50.6348 380.705 50.294 379.775 50.6546C374.496 52.7019 369.252 54.9764 363.999 57.1991C363.677 57.3349 363.39 57.6856 362.855 58.1252C367.581 62.6866 372.464 65.5465 377.652 67.2061C380.883 68.2384 384.099 68.4211 387.312 67.1789C390.451 65.9663 393.191 63.7017 395.316 58.8834C393.404 57.6412 391.677 56.4805 389.93 55.3963C387.559 53.9244 385.194 52.408 382.782 51.1337ZM418.93 39.8722C409.477 37.5063 400.393 40.3563 391.416 44.7868C389.59 45.6882 387.776 46.6513 385.956 47.5849C405.971 60.4121 425.801 73.469 447.721 74.5903C443.789 71.7304 441.737 66.0848 439.306 60.9999C437.863 57.982 436.278 55.1296 434.684 52.3117C430.459 44.8362 424.992 41.3886 418.93 39.8722ZM449.02 63.8424C444.955 58.7896 444.196 53.4552 446.446 46.0339C446.748 45.0362 447.016 44.0113 447.426 42.5493C439.922 38.6769 432.374 37.4396 424.749 37.0445C424.704 37.3581 424.66 37.6718 424.617 37.9879C424.904 38.1484 425.188 38.3238 425.478 38.467C430.981 41.1959 435.541 46.3328 439.679 52.6254C442.23 56.5027 444.804 60.3776 447.555 63.8721C450.324 67.3938 453.438 70.0782 457.007 70.9574C458.119 71.2315 459.26 71.1871 460.389 71.2884C456.269 69.9967 452.375 68.0136 449.02 63.8424Z" fill="black"/>
</svg>
