<svg width="778" height="118" viewBox="0 0 778 118" fill="none" xmlns="http://www.w3.org/2000/svg">
<g clip-path="url(#clip0_288_613)">
<path d="M28.1953 118C15.7711 118 5.18135 112.531 1.22541 104.063C-6.46911 87.5783 24.0047 63.8079 38.8025 53.8094C50.2964 46.054 80.8485 26.6482 89.708 6.51202C91.6643 2.06051 94.9681 0.478131 97.4112 0.478131C99.2284 0.478131 100.837 1.2954 101.819 2.72997C103.045 4.51232 103.15 6.96413 102.124 9.642C97.7503 21.0229 88.1778 34.0123 78.0402 45.3237C70.0501 54.2354 61.7991 63.4428 55.8869 73.3283C49.9747 83.2138 47.0013 103.698 79.3009 103.698C137.823 103.698 163.854 78.8753 175.913 61.6343C192.102 38.4986 208.178 11.6417 211.812 5.9295C214.516 1.68665 218.202 0.173828 220.758 0.173828C222.68 0.173828 224.271 0.97371 225.123 2.36481C225.662 3.25164 226.349 5.1644 224.871 8.04223C211.247 34.5253 191.597 83.3181 180.642 105.837C178.573 110.088 174.73 118 164.627 118H28.1953Z" fill="black"/>
<path d="M388.586 0.173828C401.01 0.173828 411.6 5.64259 415.556 14.1109C423.25 30.5954 392.777 54.3658 377.979 64.3644C366.485 72.1197 335.933 91.5256 327.073 111.662C325.117 116.113 321.813 117.696 319.37 117.696C317.553 117.696 315.944 116.878 314.962 115.444C313.736 113.661 313.632 111.21 314.658 108.532C319.031 97.1508 328.603 84.1614 338.741 72.8501C346.731 63.9383 354.982 54.731 360.894 44.8455C366.772 35.0122 369.78 14.4761 337.48 14.4761C278.959 14.4761 252.928 39.2985 240.868 56.5394C224.68 79.6752 208.604 106.532 204.969 112.244C202.265 116.487 198.579 118 196.023 118C194.101 118 192.51 117.2 191.658 115.809C191.119 114.922 190.432 113.009 191.91 110.132C205.535 83.6485 225.184 34.8557 236.139 12.3373C238.208 8.08571 242.051 0.173828 252.154 0.173828H388.603H388.586Z" fill="black"/>
<path d="M630.038 118C608.554 118 606.372 111.297 605.763 102.541C605.528 99.1593 604.328 96.6901 602.772 93.5775C597.643 83.3095 581.619 82.5096 565.378 73.024C550.406 64.2775 533.617 44.9412 533.617 27.822C533.617 10.7028 547.972 0.0521662 571.099 0.0521662C571.768 0.0521662 579.463 0.0521662 589.618 0.0347775C609.336 0.0173887 638.332 0 643.227 0C655.756 0 671.858 1.68671 677.387 9.71161C679.743 13.1285 680.004 17.3018 678.17 22.1359C675.188 29.9869 665.154 39.542 655.451 46.5497C647.427 52.3488 639.123 58.3392 636.272 63.8862C634.994 66.3641 632.863 67.7813 630.42 67.7813C628.264 67.7813 626.238 66.651 625.143 64.8339C620.9 57.835 640.48 35.7426 642.079 33.569C646.522 27.5351 650.983 23.0922 649 18.7451C647.679 15.8498 641.697 14.4674 631.568 14.4674C585.949 14.4674 576.75 17.0671 568.508 29.0827C564.308 35.2122 565.386 45.2281 569.368 51.7837C575.002 61.0519 582.827 67.2857 599.294 67.2857C616.718 67.2857 626.89 85.9265 629.594 89.2738C641.384 103.889 662.998 103.889 680.361 103.889H682.343C702.053 103.889 714.46 102.446 719.233 99.6027C722.346 97.7421 723.946 95.7598 723.989 93.7079C724.267 78.8145 697.028 68.7116 689.151 52.1749C688.047 49.8535 688.09 47.4452 689.281 45.5585C690.377 43.8283 692.333 42.7589 694.402 42.7589C696.663 42.7589 698.758 44.0022 700.158 46.1758C705.044 53.7921 725.954 66.3902 739.456 72.1459C755.941 79.1796 765.287 85.5178 771.669 93.6645C776.738 100.142 779.242 105.541 777.242 110.123C775.112 115 768.826 117.687 759.549 117.687C717.816 117.687 661.781 117.739 631.82 117.983C630.846 117.983 630.29 117.991 630.046 117.991L630.038 118Z" fill="black"/>
<path d="M577.002 108.871C574.454 114.766 565.064 118 550.553 118H379.831C367.346 118 363.094 112.948 361.668 109.94C359.668 105.697 359.034 99.7243 362.077 94.6642C372.136 77.9797 388.412 71.6763 406.096 59.0869C416.434 51.7227 425.389 43.037 434.066 32.2821C434.527 31.717 434.118 30.8649 433.388 30.8649H432.553C430.927 30.8649 426.232 29.9433 424.163 25.657C423.329 23.9268 423.355 22.4053 424.242 21.0316C424.798 20.1622 426.224 18.8928 429.458 18.971H444.395C444.673 18.971 444.934 18.8406 445.099 18.6146C449.342 12.7546 453.724 4.92962 453.724 4.92962C455.124 2.27784 457.654 0.686768 460.488 0.686768C462.766 0.686768 464.862 1.74748 465.948 3.43419C466.948 4.97309 466.392 6.92933 465.418 8.73775C464.914 9.67675 462.071 15.3107 460.68 17.6408C460.332 18.2233 460.749 18.9623 461.427 18.9623C461.427 18.9623 471.156 18.7711 474.391 18.9623C479.416 19.2579 482.355 21.7793 483.468 24.0833C484.302 25.8135 484.276 27.2481 483.389 28.6218C482.833 29.4912 481.407 30.9345 478.173 30.8562C475.86 30.7954 470.478 30.7867 462.418 30.7867C456.619 30.7867 451.307 34.021 448.603 39.1507C438.3 58.6521 429.249 79.5795 435.431 89.9866C440.622 98.7419 453.715 103.767 472.695 103.767C475.486 103.767 478.26 103.793 480.972 103.819C483.581 103.837 486.145 103.863 488.649 103.863C502.091 103.863 515.767 103.359 522.392 97.4638C531.339 89.5085 526.27 73.0065 520.897 63.6862C519.593 61.4343 518.245 59.1042 517.184 56.8611C515.967 54.2876 516.002 51.6879 517.254 49.6969C518.306 48.045 520.071 47.0538 522.01 47.0538C524.227 47.0538 526.322 48.358 527.757 50.6185C539.468 69.0767 558.7 73.9455 572.576 92.6384C577.115 98.7593 578.81 104.671 577.002 108.862V108.871Z" fill="black"/>
</g>
<defs>
<clipPath id="clip0_288_613">
<rect width="777.92" height="118" fill="white"/>
</clipPath>
</defs>
</svg>
